# xmcd
#
# Track frame offsets: 
#        150
#        22862
#        32915
#        45442
#        57067
#        66445
#        77355
#        92272
#        103092
#        113032
#        124487
#        133197
#        147280
#        159717
#        170047
#        188042
#        200630
#        219005
#        231385
#        240120
#
# Disc length: 3400 seconds
#
# Revision: 0
# Processed by: cddbd v1.5.1PL2 Copyright (c) Steve Scherf et al.
# Submitted via: ExactAudioCopy v0.95b3
#
DISCID=0d0d4614
DTITLE=Cami and The Knickers - Jelly  Rolls  Blusboogie - Hausband Cha
DTITLE=mäleon 1999 - Berlin
DYEAR=1999
DGENRE=
TTITLE0=Down The Road A Piece
TTITLE1=Choo Choo CH' Boogie
TTITLE2=Honeysuckle Rose
TTITLE3=Dinah
TTITLE4=You Tried To Ruim My Name
TTITLE5=Safe, Sane and Single 
TTITLE6=Is You Is, Or is You Ain't My Baby
TTITLE7=Ain't Nobody Here But Us Chickens
TTITLE8=Blue Rhythm Boogie
TTITLE9=Lollipop Lover
TTITLE10=Heart and Soul
TTITLE11=What is This Thing Called Love
TTITLE12=Blue Light Boogie
TTITLE13=Safronia B
TTITLE14=The Green Grass Grown All Around
TTITLE15=It Ain't The Meat It's The Motion
TTITLE16=Route 66
TTITLE17=I Washed My Hands in Muddy Water
TTITLE18=Yip - A - Doo Boogie
TTITLE19=Wenn die Sonja russisch tanzt
EXTD=
EXTT0=
EXTT1=
EXTT2=
EXTT3=
EXTT4=
EXTT5=
EXTT6=
EXTT7=
EXTT8=
EXTT9=
EXTT10=
EXTT11=
EXTT12=
EXTT13=
EXTT14=
EXTT15=
EXTT16=
EXTT17=
EXTT18=
EXTT19=
PLAYORDER=
